<svg width="64" height="64" viewBox="0 0 64 64" fill="none" xmlns="http://www.w3.org/2000/svg">
<rect width="64" height="64" rx="4" fill="#2F4F4F"/>
<mask id="path-2-outside-1_7_69" maskUnits="userSpaceOnUse" x="3" y="3" width="58" height="58" fill="black">
<rect fill="white" x="3" y="3" width="58" height="58"/>
<path d="M5.75 9.25H16.25L16.4287 9.25879C17.3113 9.3483 18 10.0938 18 11V53C18 53.9665 17.2165 54.75 16.25 54.75H5.75V60H4V54.75C4 53.7835 4.7835 53 5.75 53H16.25V11H5.75C4.7835 11 4 10.2165 4 9.25V4H5.75V9.25ZM58.25 53C59.2165 53 60 53.7835 60 54.75V60H58.25V54.75H47.75C46.7835 54.75 46 53.9665 46 53V11C46 10.0335 46.7835 9.25 47.75 9.25H58.25V4H60V9.25C60 10.1562 59.3113 10.9017 58.4287 10.9912L58.25 11H47.75V53H58.25ZM25.875 53H24.125V11H25.875V53ZM32.875 53H31.125V11H32.875V53ZM39.875 53H38.125V11H39.875V53Z"/>
</mask>
<path d="M5.75 9.25H16.25L16.4287 9.25879C17.3113 9.3483 18 10.0938 18 11V53C18 53.9665 17.2165 54.75 16.25 54.75H5.75V60H4V54.75C4 53.7835 4.7835 53 5.75 53H16.25V11H5.75C4.7835 11 4 10.2165 4 9.25V4H5.75V9.25ZM58.25 53C59.2165 53 60 53.7835 60 54.75V60H58.25V54.75H47.75C46.7835 54.75 46 53.9665 46 53V11C46 10.0335 46.7835 9.25 47.75 9.25H58.25V4H60V9.25C60 10.1562 59.3113 10.9017 58.4287 10.9912L58.25 11H47.75V53H58.25ZM25.875 53H24.125V11H25.875V53ZM32.875 53H31.125V11H32.875V53ZM39.875 53H38.125V11H39.875V53Z" fill="#FAEBD7"/>
<path d="M5.75 9.25H4.75C4.75 9.80228 5.19772 10.25 5.75 10.25V9.25ZM16.25 9.25L16.2991 8.25121C16.2828 8.2504 16.2664 8.25 16.25 8.25V9.25ZM16.4287 9.25879L16.5296 8.26389C16.5124 8.26215 16.4951 8.26085 16.4778 8.26L16.4287 9.25879ZM18 11L19 11L19 11L18 11ZM18 53L19 53V53H18ZM16.25 54.75L16.25 55.75L16.25 55.75L16.25 54.75ZM5.75 54.75V53.75C5.19772 53.75 4.75 54.1977 4.75 54.75H5.75ZM5.75 60V61C6.30228 61 6.75 60.5523 6.75 60H5.75ZM4 60H3C3 60.5523 3.44772 61 4 61V60ZM16.25 53V54C16.8023 54 17.25 53.5523 17.25 53H16.25ZM16.25 11H17.25C17.25 10.4477 16.8023 10 16.25 10V11ZM5.75 11L5.75 10L5.75 10L5.75 11ZM4 9.25L3 9.25L3 9.25L4 9.25ZM4 4V3C3.44772 3 3 3.44772 3 4H4ZM5.75 4H6.75C6.75 3.44772 6.30228 3 5.75 3V4ZM60 60V61C60.5523 61 61 60.5523 61 60H60ZM58.25 60H57.25C57.25 60.5523 57.6977 61 58.25 61V60ZM58.25 54.75H59.25C59.25 54.1977 58.8023 53.75 58.25 53.75V54.75ZM47.75 54.75L47.75 55.75H47.75V54.75ZM46 53L45 53V53L46 53ZM46 11L45 11V11H46ZM47.75 9.25L47.75 8.25L47.75 8.25L47.75 9.25ZM58.25 9.25V10.25C58.8023 10.25 59.25 9.80228 59.25 9.25H58.25ZM58.25 4V3C57.6977 3 57.25 3.44772 57.25 4H58.25ZM60 4H61C61 3.44772 60.5523 3 60 3V4ZM60 9.25L61 9.25V9.25H60ZM58.4287 10.9912L58.4778 11.99C58.4951 11.9892 58.5124 11.9879 58.5296 11.9861L58.4287 10.9912ZM58.25 11V12C58.2664 12 58.2828 11.9996 58.2991 11.9988L58.25 11ZM47.75 11V10C47.1977 10 46.75 10.4477 46.75 11H47.75ZM47.75 53H46.75C46.75 53.5523 47.1977 54 47.75 54V53ZM25.875 53V54C26.4273 54 26.875 53.5523 26.875 53H25.875ZM24.125 53H23.125C23.125 53.5523 23.5727 54 24.125 54V53ZM24.125 11V10C23.5727 10 23.125 10.4477 23.125 11H24.125ZM25.875 11H26.875C26.875 10.4477 26.4273 10 25.875 10V11ZM32.875 53V54C33.4273 54 33.875 53.5523 33.875 53H32.875ZM31.125 53H30.125C30.125 53.5523 30.5727 54 31.125 54V53ZM31.125 11V10C30.5727 10 30.125 10.4477 30.125 11H31.125ZM32.875 11H33.875C33.875 10.4477 33.4273 10 32.875 10V11ZM39.875 53V54C40.4273 54 40.875 53.5523 40.875 53H39.875ZM38.125 53H37.125C37.125 53.5523 37.5727 54 38.125 54V53ZM38.125 11V10C37.5727 10 37.125 10.4477 37.125 11H38.125ZM39.875 11H40.875C40.875 10.4477 40.4273 10 39.875 10V11ZM5.75 9.25V10.25H16.25V9.25V8.25H5.75V9.25ZM16.25 9.25L16.2009 10.2488L16.3796 10.2576L16.4287 9.25879L16.4778 8.26L16.2991 8.25121L16.25 9.25ZM16.4287 9.25879L16.3278 10.2537C16.7048 10.2919 17 10.6121 17 11L18 11L19 11C19 9.57557 17.9177 8.40467 16.5296 8.26389L16.4287 9.25879ZM18 11H17V53H18H19V11H18ZM18 53L17 53C17 53.4142 16.6642 53.75 16.25 53.75L16.25 54.75L16.25 55.75C17.7688 55.75 19 54.5188 19 53L18 53ZM16.25 54.75V53.75H5.75V54.75V55.75H16.25V54.75ZM5.75 54.75H4.75V60H5.75H6.75V54.75H5.75ZM5.75 60V59H4V60V61H5.75V60ZM4 60H5V54.75H4H3V60H4ZM4 54.75H5C5 54.3358 5.33579 54 5.75 54V53V52C4.23122 52 3 53.2312 3 54.75H4ZM5.75 53V54H16.25V53V52H5.75V53ZM16.25 53H17.25V11H16.25H15.25V53H16.25ZM16.25 11V10H5.75V11V12H16.25V11ZM5.75 11L5.75 10C5.33579 10 5 9.66421 5 9.25L4 9.25L3 9.25C3 10.7688 4.23122 12 5.75 12L5.75 11ZM4 9.25H5V4H4H3V9.25H4ZM4 4V5H5.75V4V3H4V4ZM5.75 4H4.75V9.25H5.75H6.75V4H5.75ZM58.25 53V54C58.6642 54 59 54.3358 59 54.75H60H61C61 53.2312 59.7688 52 58.25 52V53ZM60 54.75H59V60H60H61V54.75H60ZM60 60V59H58.25V60V61H60V60ZM58.25 60H59.25V54.75H58.25H57.25V60H58.25ZM58.25 54.75V53.75H47.75V54.75V55.75H58.25V54.75ZM47.75 54.75L47.75 53.75C47.3358 53.75 47 53.4142 47 53L46 53L45 53C45 54.5188 46.2312 55.75 47.75 55.75L47.75 54.75ZM46 53H47V11H46H45V53H46ZM46 11L47 11C47 10.5858 47.3358 10.25 47.75 10.25L47.75 9.25L47.75 8.25C46.2312 8.25 45 9.48122 45 11L46 11ZM47.75 9.25V10.25H58.25V9.25V8.25H47.75V9.25ZM58.25 9.25H59.25V4H58.25H57.25V9.25H58.25ZM58.25 4V5H60V4V3H58.25V4ZM60 4H59V9.25H60H61V4H60ZM60 9.25L59 9.25C59 9.63792 58.7048 9.95808 58.3278 9.99631L58.4287 10.9912L58.5296 11.9861C59.9177 11.8453 61 10.6744 61 9.25L60 9.25ZM58.4287 10.9912L58.3796 9.99242L58.2009 10.0012L58.25 11L58.2991 11.9988L58.4778 11.99L58.4287 10.9912ZM58.25 11V10H47.75V11V12H58.25V11ZM47.75 11H46.75V53H47.75H48.75V11H47.75ZM47.75 53V54H58.25V53V52H47.75V53ZM25.875 53V52H24.125V53V54H25.875V53ZM24.125 53H25.125V11H24.125H23.125V53H24.125ZM24.125 11V12H25.875V11V10H24.125V11ZM25.875 11H24.875V53H25.875H26.875V11H25.875ZM32.875 53V52H31.125V53V54H32.875V53ZM31.125 53H32.125V11H31.125H30.125V53H31.125ZM31.125 11V12H32.875V11V10H31.125V11ZM32.875 11H31.875V53H32.875H33.875V11H32.875ZM39.875 53V52H38.125V53V54H39.875V53ZM38.125 53H39.125V11H38.125H37.125V53H38.125ZM38.125 11V12H39.875V11V10H38.125V11ZM39.875 11H38.875V53H39.875H40.875V11H39.875Z" fill="#FAEBD7" mask="url(#path-2-outside-1_7_69)"/>
</svg>
